<?xml version="1.0" standalone="no"?><!DOCTYPE svg PUBLIC "-//W3C//DTD SVG 1.1//EN" "http://www.w3.org/Graphics/SVG/1.1/DTD/svg11.dtd"><svg class="icon" width="48px" height="48.00px" viewBox="0 0 1024 1024" version="1.1" xmlns="http://www.w3.org/2000/svg"><path fill="#1296db" d="M268.190476 146.285714h48.761905v73.118476L268.190476 219.428571v609.52381h487.619048V219.428571h-48.761905V146.285714h48.761905a73.142857 73.142857 0 0 1 73.142857 73.142857v609.52381a73.142857 73.142857 0 0 1-73.142857 73.142857H268.190476a73.142857 73.142857 0 0 1-73.142857-73.142857V219.428571a73.142857 73.142857 0 0 1 73.142857-73.142857z m292.571429 390.095238v73.142858h-219.428572v-73.142858h219.428572z m121.904762-146.285714v73.142857H341.333333v-73.142857h341.333334zM585.142857 73.142857a73.142857 73.142857 0 0 1 73.142857 73.142857v48.761905a73.142857 73.142857 0 0 1-73.142857 73.142857h-146.285714a73.142857 73.142857 0 0 1-73.142857-73.142857V146.285714a73.142857 73.142857 0 0 1 73.142857-73.142857h146.285714z m0 73.142857h-146.285714v48.761905h146.285714V146.285714z" /></svg>